<svg width="19" height="22" viewBox="0 0 19 22" fill="none" xmlns="http://www.w3.org/2000/svg">
<path d="M18.8713 15.2343V15.2351C19.3843 18.1676 17.3405 20.2961 14.4928 20.7746C11.7418 21.2366 7.25901 21.2366 4.50876 20.7746C1.66026 20.2961 -0.383494 18.1676 0.130256 15.2351V15.2343C0.565256 12.7458 2.67501 11.1956 5.2505 11.3291C7.13226 11.4266 8.28801 11.6711 9.62676 11.6711C10.9805 11.6711 11.8828 11.4258 13.751 11.3291C16.3265 11.1941 18.4363 12.7458 18.8713 15.2343ZM9.15051 0.121094C11.8565 0.121094 14.0503 2.31484 14.0503 5.02084C14.0503 7.72684 11.8565 9.92059 9.15051 9.92059C6.44451 9.92059 4.25001 7.72609 4.25001 5.02084C4.25001 2.31559 6.44376 0.121094 9.15051 0.121094Z" fill="#00A6FF"/>
</svg>
